<?xml version="1.0" encoding="UTF-8" standalone="no"?>
<svg xmlns:rdf="http://www.w3.org/1999/02/22-rdf-syntax-ns#" xmlns="http://www.w3.org/2000/svg" version="1.1" xmlns:cc="http://creativecommons.org/ns#" xmlns:dc="http://purl.org/dc/elements/1.1/" viewBox="0 0 182 44">
 <g stroke="#653216" stroke-width="1.4" fill="none">
  <path stroke-linejoin="round" d="m24.776 42.495c-13.485-1.428-23.818-6.475-23.618-15.63 0.4647-15.273 15.615-23.263 26.976-23.618 5.4414-0.15362 9.8023 2.3863 10.188 5.7888 0.87012 7.6694-19.219 15.63-19.219 15.63s17.858-6.5703 24.66 2.1997c2.7846 3.5903-11.809 10.651-11.809 10.651s-8.787 3.356-7.6412-0.23155c1.7656-5.5283 16.79-10.101 18.408-10.304 3.1692-0.39686 7.0954-0.40839 7.9886 0.11578 1.3366 0.78441-1.6788 4.139-0.92621 4.8626 0.75254 0.7236 3.8206-2.5471 3.9364-1.9682 0.11578 0.57888-0.63677 2.6339 0.57888 3.0102 1.2156 0.37627 2.3155-1.0999 4.2837-1.5051 1.9682-0.40522 1.8235-0.43416 3.5891-0.11578s2.1129 0.63677 3.4733 1.3893c1.3604 0.75254 0.86832 2.2287 1.9682 1.6209 1.0999-0.60782 1.4183-4.1679 2.4313-4.0522 1.013 0.11578 0.02894 5.3836 1.6209 4.5153 1.5919-0.86832 4.7468-7.9886 4.7468-7.9886s-0.8277 4.0448 0 3.9364c3.1288-0.40993 8.1043-2.576 14.472-3.3575 6.3677-0.78149 8.6641-0.35696 10.999 0.23155 1.9203 0.48408 2.6628 2.3155 2.6628 2.3155" stroke-linecap="round"/>
  <g>
   <path d="m113.69 15.751s-1.0999-2.7786-3.5891-2.084c-5.8301 1.627-16.218 7.6808-16.44 15.63-0.45888 16.291 21.086 11.14 22.692 10.999 13.599-1.1962 17.384-9.9553 17.366-14.472-0.0565-14.308-19.074-10.304-21.071-10.073-7.8999 0.91594-10.479 1.5729-10.479 1.5729"/>
   <path d="m119.71 1.0471c-2.54 13.915-5.12 27.834-2.54 41.448" stroke-linecap="round"/>
   <path d="m133.61 27.791c-6.6229-0.41005-12.592 0.37825-17.366 3.3575"/>
   <path d="m131.52 32.77s3.9453-0.13273 8.3359-0.92621c2.4024-0.43416 5.0073-1.7366 7.8728-1.8524 2.8655-0.11578 1.7366 1.4472 3.5891 1.3893 4.632-0.14475 7.9885-0.28944 14.935-0.69466 6.9466-0.40522 9.7529-2.7641 12.851-0.92621 1.7077 1.013 1.3893 3.126 1.3893 3.126" stroke-linecap="round"/>
   <path d="m151.7 27.582c-2.32 0.134-2.58 2.525-2.58 2.525l4.4 0.926s2.27-2.747-0.7-3.357c-0.42-0.087-0.79-0.113-1.12-0.094z"/>
  </g>
 </g>
</svg>
